# xmcd
#
# Track frame offsets: 
#        150
#        11000
#        32676
#        66783
#        95774
#        109651
#        131280
#        158509
#        181464
#        212043
#        235495
#
# Disc length: 3518 seconds
#
# Revision: 1
# Processed by: cddbd v1.5.2PL0 Copyright (c) Steve Scherf et al.
# Submitted via: ExactAudioCopy v0.99pb3
#
DISCID=8e0dbc0b
DTITLE=Various Artist - American Landscape
DYEAR=1989
DGENRE=New Age
TTITLE0=Michael Hedges - Breakfast In The Field
TTITLE1=Suzanna Ciani - Inverness
TTITLE2=William Ackerman - Conferring With The Moon
TTITLE3=Douglas Spotted Eagle - Native Son
TTITLE4=Liz Story - Devotion
TTITLE5=Scott Cossu - Country Faire
TTITLE6=Clarence Clemmons - Peace Prayer
TTITLE7=Tim Story - The Lure Of Silence
TTITLE8=Georg Winston - Wood
TTITLE9=Hohn Tesh - A Thousand Summers
TTITLE10=Alex De Grassi - Clockwork
EXTD=YEAR: 1989
EXTT0=
EXTT1=
EXTT2=
EXTT3=
EXTT4=
EXTT5=
EXTT6=
EXTT7=
EXTT8=
EXTT9=
EXTT10=
PLAYORDER=
